<?xml version="1.0" ?><svg viewBox="0 0 60 60" xmlns="http://www.w3.org/2000/svg"><title/><g id="colour"><path d="M1,27V53.66667C1,56.60729,3.6918,59,7,59s6-2.39271,6-5.33333V27Z" fill="#aaa"/><path d="M11,59H53.49755a5.23055,5.23055,0,0,0,5.16933-5.27778V21H13.17677V53.72222A7.44422,7.44422,0,0,1,11,59Z" fill="#e0e0e0"/><path d="M53.49756,55H13.0603A7.4287,7.4287,0,0,1,11,59H53.49756a5.23053,5.23053,0,0,0,5.16931-5.27777v-4A5.23053,5.23053,0,0,1,53.49756,55Z" fill="#c9c8c7"/></g><g data-name="Layer 1" id="Layer_1"><path d="M59,20.00036H13a1,1,0,0,0-1,1v5H1a1,1,0,0,0-1,1v26a7.00818,7.00818,0,0,0,7,7H53a7.00818,7.00818,0,0,0,7-7v-32A1,1,0,0,0,59,20.00036Zm-52,38a5.00589,5.00589,0,0,1-5-5v-25H12v25A5.00589,5.00589,0,0,1,7,58.00036Zm51-5a5.00589,5.00589,0,0,1-5,5H11.89453a6.98008,6.98008,0,0,0,2.10547-5v-31H58Z"/><path d="M5,30.00036a1,1,0,0,0-1,1v23a1,1,0,0,0,2,0v-23A1,1,0,0,0,5,30.00036Z"/><path d="M9,30.00036a1,1,0,0,0-1,1v23a1,1,0,1,0,2,0v-23A1,1,0,0,0,9,30.00036Z"/><path d="M45,27.00036H55a1,1,0,0,0,0-2H45a1,1,0,0,0,0,2Z"/><path d="M55,37.00036H40a1,1,0,0,0,0,2H55a1,1,0,0,0,0-2Z"/><path d="M55,41.00036H40a1,1,0,0,0,0,2H55a1,1,0,0,0,0-2Z"/><path d="M55,45.00036H40a1,1,0,0,0,0,2H55a1,1,0,0,0,0-2Z"/><path d="M55,49.00036H40a1,1,0,0,0,0,2H55a1,1,0,0,0,0-2Z"/><path d="M55,53.00036H40a1,1,0,0,0,0,2H55a1,1,0,0,0,0-2Z"/><path d="M17,27.00036H27a1,1,0,1,0,0-2H17a1,1,0,0,0,0,2Z"/><path d="M17,39.00036H32a1,1,0,0,0,0-2H17a1,1,0,0,0,0,2Z"/><path d="M17,43.00036H32a1,1,0,0,0,0-2H17a1,1,0,0,0,0,2Z"/><path d="M17,47.00036H32a1,1,0,0,0,0-2H17a1,1,0,0,0,0,2Z"/><path d="M17,51.00036H32a1,1,0,0,0,0-2H17a1,1,0,0,0,0,2Z"/><path d="M17,55.00036H32a1,1,0,0,0,0-2H17a1,1,0,0,0,0,2Z"/><path d="M17,33.00036H55a1,1,0,0,0,0-2H17a1,1,0,0,0,0,2Z"/></g></svg>