<?xml version="1.0" ?><svg viewBox="0 0 60 60" xmlns="http://www.w3.org/2000/svg"><title/><g id="colour"><polygon fill="#af1e1e" points="59 45 44.125 59 41.15 33 59 45"/><polygon fill="#9e1d1d" points="41.15 33 41.153 33.024 41.485 33.225 41.15 33"/><polygon fill="#9e1d1d" points="59 45 54 42 44 56 44.125 59 59 45"/><polygon fill="#af1e1e" points="24 31 9.003 59 1 42.007 24 31"/><polygon fill="#ba2a2a" points="1 42.007 9.003 59 10 57 5.033 40.077 1 42.007"/><polygon fill="#d32f2e" points="36 1 35.048 19.22 23.764 30.551 2 41 36 1"/><polygon fill="#d34444" points="36 1 2 41 8.504 37.877 35.748 5.826 36 1"/><polygon fill="#d32f2e" points="44 59 9.36 59 24.381 30.825 35.144 20 40.979 32.731 44 59"/><path d="M59,45,41.166,33.14182,35.03,19.8794,36.02134,1C46.07071,5.72244,58.5618,27.12955,59,45Z" fill="#d32f2e"/><path d="M59,45C58.56409,27.22522,46.20508,5.95837,36.184,1.08411,44.05225,9.88794,53.66785,28.45636,54,42Z" fill="#ba2a2a"/></g><g data-name="Layer 1" id="Layer_1"><path d="M36.37109.07164a1.00325,1.00325,0,0,0-1.13184.2793l-35,41a1.00147,1.00147,0,0,0-.14453,1.0752l8,17A1.00026,1.00026,0,0,0,9,60.00036H44a1.00159,1.00159,0,0,0,.68262-.26855l15-14A1.00271,1.00271,0,0,0,60,45.00036C60,26.72692,46.68848,4.1986,36.37109.07164ZM57.94922,43.098,41.78992,32.32512,36.01172,19.806l.90863-17.25848C46.11426,7.52465,57.13757,26.67821,57.94922,43.098ZM34.02112,19.56517,23.41486,30.17144,4.82141,39.064,34.846,3.89226ZM24.81152,31.60289l9.88135-9.88135,5.33252,11.55225L42.8783,58.00036H10.67072Zm17.42889,3.42627,15.153,10.102L44.766,56.91716ZM2.32813,42.47393l19.34723-9.253L9.05762,56.774Z"/></g></svg>