<?xml version="1.0" ?><!DOCTYPE svg  PUBLIC '-//W3C//DTD SVG 1.1//EN'  'http://www.w3.org/Graphics/SVG/1.1/DTD/svg11.dtd'><svg style="enable-background:new 0 0 35.999 36.005;" version="1.1" viewBox="0 0 35.999 36.005" xml:space="preserve" xmlns="http://www.w3.org/2000/svg" xmlns:xlink="http://www.w3.org/1999/xlink"><g id="Cut"><g id="Document" transform="scale(1 -1)"><g id="Spread" transform="translate(0 -36)"><g id="Layer_1_1_"><g id="ClipView_1_"><path d="M0,36V-0.005h35.999V36H0z" marker-end="none" marker-start="none" style="fill:none;"/><g><defs><rect height="36.005" id="SVGID_1_" width="35.999" x="0" y="-0.005"/></defs><clipPath id="SVGID_2_"><use style="overflow:visible;" xlink:href="#SVGID_1_"/></clipPath><g style="clip-path:url(#SVGID_2_);"><path d="M16.658,15.937l-0.966,1.141         c-0.268,0.316-0.228,0.791,0.089,1.058l14.727,12.423c0.521,0.439,1.314,0.007,1.227-0.669         c-0.242-1.898-2.255-5.066-5.093-7.47l-5.556-4.706l-0.121-0.084l-3.371-1.865C17.281,15.592,16.889,15.664,16.658,15.937z" marker-end="none" marker-start="none" style="fill:#526073;"/><linearGradient gradientTransform="matrix(0.995 0.1003 -0.1003 0.995 15.5948 18.9407)" gradientUnits="userSpaceOnUse" id="SVGID_3_" x1="0.1048" x2="14.6668" y1="3.3879" y2="3.3879"><stop offset="0" style="stop-color:#BEC6D1"/><stop offset="1" style="stop-color:#FFFFFF"/></linearGradient><path d="M30.992,29.986L16.265,17.563l0.966-1.141         l3.371,1.865l5.556,4.706C28.936,25.346,30.784,28.359,30.992,29.986z" marker-end="none" marker-start="none" style="fill:url(#SVGID_3_);"/><path d="M20.007,19.747l-0.481,0.567l11.466,9.672         c-0.026-0.204-0.078-0.429-0.154-0.672l-0.224-0.583L20.007,19.747z" marker-end="none" marker-start="none" style="fill:#FFFFFF;"/><path d="M12.388,10.348c0.799,0.678,4.692,3.975,5.407,4.58         c0.805,0.682-2.069,4.077-2.875,3.395c-0.185-0.157-0.01-0.34-0.174-0.148c-1.083,2.099-4.166,3.418-8.827-0.189         c-2.89-2.448-3.785-6.145-2.001-8.255C5.704,7.626,9.498,7.899,12.388,10.348z M7.454,16.174         c1.998,1.694,4.079,2.017,5.07,0.848c0.99-1.171,0.347-3.192-1.651-4.886c-2-1.694-3.939-1.859-4.929-0.688         C4.955,12.617,5.452,14.48,7.454,16.174z" marker-end="none" marker-start="none" style="fill:#0C3670;"/><radialGradient cx="1.8389" cy="-2.1343" gradientTransform="matrix(-0.9886 -0.1505 0.1505 -0.9885 16.4221 13.068)" gradientUnits="userSpaceOnUse" id="SVGID_4_" r="11.448"><stop offset="0" style="stop-color:#478DEC"/><stop offset="1" style="stop-color:#205DAF"/></radialGradient><path d="M4.49,10.215         c-1.387,1.64-0.84,4.866,1.901,7.188c4.406,3.41,6.877,1.999,7.688,0.428l0.096-0.144l0.05-0.058         c-0.007,0.008,0.057-0.071,0.14-0.133c-0.01,0.006,0.257-0.224,0.634-0.133c0.118,0.029,0.212,0.078,0.286,0.136l0.071,0.08         l0.272-0.185c0.217-0.168,0.484-0.415,0.761-0.742c0.416-0.492,0.657-0.93,0.75-1.184l0.012-0.103         c-1.031-0.872-4.499-3.81-5.249-4.445C9.15,8.587,5.878,8.58,4.49,10.215z M11.357,11.563         c2.065,1.751,3.186,4.232,1.739,5.943c-1.432,1.689-4.107,0.953-6.127-0.76c-2.066-1.748-3.027-4.094-1.598-5.783         C6.796,9.277,9.285,9.808,11.357,11.563z" marker-end="none" marker-start="none" style="fill:url(#SVGID_4_);"/><path d="M18.769,15.15l-0.755,3.777         C18.004,18.976,18,19.025,18,19.075v7.282c0,1.892,0.286,3.711,0.719,5.222c0.426,1.485,1.018,2.759,1.689,3.493         c0.46,0.503,1.302,0.176,1.303-0.505l0.038-19.268c0.001-0.415-0.335-0.751-0.749-0.751h-1.495         C19.147,14.548,18.839,14.8,18.769,15.15z" marker-end="none" marker-start="none" style="fill:#526073;"/><linearGradient gradientTransform="matrix(1 0 0 1 22.5 15.82)" gradientUnits="userSpaceOnUse" id="SVGID_5_" x1="2.7172" x2="-5.5328" y1="1.863" y2="13.863"><stop offset="0" style="stop-color:#BEC6D1"/><stop offset="1" style="stop-color:#FFFFFF"/></linearGradient><path d="M20.962,34.566L21,15.298h-1.495l-0.755,3.777         v7.282C18.75,29.997,19.855,33.355,20.962,34.566z" marker-end="none" marker-start="none" style="fill:url(#SVGID_5_);"/><path d="M20.249,19.565v13.901l0.3,0.548         c0.136,0.215,0.274,0.4,0.413,0.552l0.029-15.001H20.249z" marker-end="none" marker-start="none" style="fill:#FFFFFF;"/><path d="M18,7.676c0.001,1.049,0.001,6.15,0.001,7.087         c0,1.055,4.448,1.055,4.448,0c0-0.243-0.253-0.228,0-0.228c2.301,0.53,5.301-0.97,5.561-6.859         c-0.001-3.787-2.243-6.859-5.007-6.861C20.243,0.817,18,3.889,18,7.676z M25.635,7.676c0.001,2.62-1.097,4.417-2.63,4.417         c-1.534,0-2.661-1.797-2.661-4.417c0-2.621,1.127-4.207,2.661-4.205C24.536,3.471,25.636,5.055,25.635,7.676z" marker-end="none" marker-start="none" style="fill:#0C3670;"/><radialGradient cx="20.25" cy="12.06" gradientTransform="matrix(1 0 0 1 0 0.005)" gradientUnits="userSpaceOnUse" id="SVGID_6_" r="11.448"><stop offset="0" style="stop-color:#478DEC"/><stop offset="1" style="stop-color:#205DAF"/></radialGradient><path d="M18.75,7.675c0,0.983,0,5.529,0,6.887         l0.086,0.05c0.255,0.093,0.745,0.192,1.389,0.192c0.429,0,0.79-0.045,1.058-0.102l0.316-0.087l-0.014-0.12         c0.005-0.096,0.031-0.201,0.091-0.311c0.18-0.337,0.525-0.385,0.51-0.382c0.123-0.026,0.296-0.017,0.263-0.017l0.168,0.019         c1.588,0.365,4.061-0.429,4.568-5.162l0.073-0.984l-0.094-1.272c-0.433-2.88-2.282-4.821-4.161-4.821         C20.832,1.566,18.75,4.068,18.75,7.675z M26.385,7.675c0.001,2.697-1.132,5.168-3.38,5.168c-2.209,0-3.411-2.411-3.411-5.167         c0-2.757,1.259-4.958,3.411-4.955C25.184,2.721,26.386,4.882,26.385,7.675z" marker-end="none" marker-start="none" style="fill:url(#SVGID_6_);"/><path d="M19.874,20.314c0.62,0,1.125-0.503,1.125-1.123         s-0.505-1.123-1.125-1.123c-0.62,0-1.125,0.503-1.125,1.123S19.254,20.314,19.874,20.314z" marker-end="none" marker-start="none" style="fill:#6F8199;"/><path d="M19.499,18.143l0.001,2.095l0.374,0.076l0.374-0.076         l0.001-2.095l-0.375-0.075L19.499,18.143z" marker-end="none" marker-start="none" style="fill:#1C2127;"/></g></g></g></g></g></g></g><g id="Layer_1"/></svg>